<svg xmlns="http://www.w3.org/2000/svg" viewBox="0 0 512 512">
  <rect width="512" height="512" rx="96" fill="#F97316"/>
  <g transform="translate(256,240)" fill="none" stroke="white" stroke-width="24" stroke-linecap="round" stroke-linejoin="round">
    <!-- Chef hat -->
    <path d="M-80,20 C-80,-60 -40,-100 0,-100 C40,-100 80,-60 80,20" fill="white" stroke="white"/>
    <ellipse cx="-60" cy="-40" rx="40" ry="45" fill="white" stroke="white"/>
    <ellipse cx="60" cy="-40" rx="40" ry="45" fill="white" stroke="white"/>
    <ellipse cx="0" cy="-60" rx="45" ry="45" fill="white" stroke="white"/>
    <rect x="-70" y="10" width="140" height="50" rx="8" fill="white" stroke="white"/>
    <!-- Lines on hat -->
    <line x1="-30" y1="20" x2="-30" y2="50" stroke="#F97316" stroke-width="8"/>
    <line x1="0" y1="20" x2="0" y2="50" stroke="#F97316" stroke-width="8"/>
    <line x1="30" y1="20" x2="30" y2="50" stroke="#F97316" stroke-width="8"/>
  </g>
  <!-- Fork and spoon below -->
  <g transform="translate(256,380)" fill="none" stroke="white" stroke-width="12" stroke-linecap="round">
    <line x1="-30" y1="-20" x2="-30" y2="60"/>
    <line x1="-30" y1="-20" x2="-30" y2="-50"/>
    <line x1="-42" y1="-20" x2="-42" y2="-50"/>
    <line x1="-18" y1="-20" x2="-18" y2="-50"/>
    <path d="M30,-50 C50,-50 50,-10 30,-10 L30,60" fill="none"/>
  </g>
</svg>
